PathFileType	4	(X/Y/Z)	RBDS011\RBDS011runT35.trc
DataRate	CameraRate	NumFrames	NumMarkers	Units	OrigDataRate	OrigDataStartFrame	OrigNumFrames
150.000000	150.000000	6	33	mm	150.000000	562	4500
Frame#	Time	L.ASIS			L.Heel.Bottom			L.Heel.Lateral			L.Heel.Top			L.Iliac.Crest			L.MT1			L.MT5			L.PSIS			L.Shank.Bottom.Lateral			L.Shank.Bottom.Medial			L.Shank.Top.Lateral			L.Shank.Top.Medial			L.Thigh.Bottom.Lateral			L.Thigh.Bottom.Medial			L.Thigh.Top.Lateral			L.Thigh.Top.Medial			R.ASIS			R.ASY			R.Heel.Bottom			R.Heel.Lateral			R.Heel.Top			R.Iliac.Crest			R.MT1			R.MT5			R.PSIS			R.Shank.Bottom.Lateral			R.Shank.Bottom.Medial			R.Shank.Top.Lateral			R.Shank.Top.Medial			R.Thigh.Bottom.Lateral			R.Thigh.Bottom.Medial			R.Thigh.Top.Lateral			R.Thigh.Top.Medial			
		X1	Y1	Z1	X2	Y2	Z2	X3	Y3	Z3	X4	Y4	Z4	X5	Y5	Z5	X6	Y6	Z6	X7	Y7	Z7	X8	Y8	Z8	X9	Y9	Z9	X10	Y10	Z10	X11	Y11	Z11	X12	Y12	Z12	X13	Y13	Z13	X14	Y14	Z14	X15	Y15	Z15	X16	Y16	Z16	X17	Y17	Z17	X18	Y18	Z18	X19	Y19	Z19	X20	Y20	Z20	X21	Y21	Z21	X22	Y22	Z22	X23	Y23	Z23	X24	Y24	Z24	X25	Y25	Z25	X26	Y26	Z26	X27	Y27	Z27	X28	Y28	Z28	X29	Y29	Z29	X30	Y30	Z30	X31	Y31	Z31	X32	Y32	Z32	X33	Y33	Z33	

563	3.746666666666667	2296.302675847636	932.744653673839	918.7830659094615	1940.894939325028	463.7142134193683	979.389103835357	1956.118805772887	439.3892530364703	940.5598858919877	1989.980476628445	460.0406860381349	979.3174789605425	2228.320557907648	1001.575667162634	885.4032577814955	1988.39883502332	244.9459985619772	1025.818167967596	1972.246425836785	268.2050458404323	912.9925852492569	2130.346058436802	976.4789207300751	991.4626778993787	2087.593864768359	424.7165864857035	915.9321769619821	2083.408196531979	461.4568624892541	956.8445947992749	2161.564780950728	451.798252830099	899.8154490795226	2158.041992570162	487.4987310334875	939.9445996348603	2369.419001107828	588.8335605795374	853.9173298297674	2323.898971776625	555.0806615635313	899.5672316488852	2300.987817064287	675.6602344659933	853.7893910448995	2257.30412193235	643.6580163546064	895.9880761026249	2295.107442763528	949.514920228723	1169.878291988469	2120.968624442664	88.91416110556666	1075.53298762596	1933.981335203726	51.98022793097974	1077.326211044774	1962.088344886766	68.71817594752576	1117.631995367218	1951.060039419818	100.007891211149	1076.034850650671	2234.036470341487	992.5861604236746	1201.884780676981	2157.974681773309	38.30629261614159	1027.453734228004	2132.309269858	38.22027017181119	1146.053377995546	2128.369002582857	985.4527650091078	1089.091362111475	2051.94479634297	166.6192101560952	1131.78489232904	2025.352698316496	197.103932312534	1100.293625366976	2098.515220764573	233.6283288911206	1155.0512889202	2066.40780336281	262.8328094263617	1123.120234718084	2243.005781882417	562.1536110616247	1201.385424191672	2181.679984374307	556.4867263167835	1160.862762559802	2218.416520073125	667.9927015815098	1218.503781894069	2160.558466249344	663.4214515257759	1181.412539980624	
564	3.753333333333333	2296.537211844739	936.9106088641435	919.0087597441535	1951.587483652377	444.5986546065748	979.8565354993682	1968.721499202463	421.5794990511632	940.8477163195953	2000.81971247626	444.472132835805	979.6556148326787	2228.482583030158	1006.382169420748	885.159796276998	2014.241574554003	229.6303692902832	1025.691414262351	1996.799492056452	251.9449970312213	912.8375554724465	2130.543237815666	980.1806900500673	991.5686388880337	2101.387489708233	415.0598271261533	916.4195004240172	2094.934578000664	451.6908798979961	957.1200552065419	2173.671904172407	446.3611231504319	900.262426521053	2167.932993759513	482.0930500572813	940.1819398030043	2378.141280332006	597.6040550120775	854.2343856055605	2332.999955837575	562.2572633252779	899.1421284712351	2307.035491869583	682.3058312414623	853.6190829795661	2263.725759641558	648.7732248612634	895.092646935693	2295.577216726131	951.5269241170541	1170.264134811485	2098.910651503152	89.82015113951937	1076.16064995717	1911.234405277538	57.38867968763977	1077.433120975474	1939.58594063684	73.12093140472412	1117.95219630837	1929.165818585829	105.0224652323508	1076.694343438302	2234.52318054693	996.078216581532	1201.768274487177	2134.106083025543	38.18750855235675	1027.351240393066	2108.206201699491	38.19702550507089	1146.009825840528	2128.925637863266	988.4619642094849	1089.593930555042	2030.423337534404	170.4676808938786	1132.306216512058	2004.477815854515	201.15385247882	1100.634347266888	2077.790001447762	236.9175065174715	1155.613274362203	2046.239014182945	266.4439304700644	1123.467522803391	2230.910106190218	564.1037897438441	1201.993051027914	2168.787974568801	560.4617743545027	1162.401737537229	2210.432114426845	670.8514703386833	1218.92843023104	2151.980299986054	668.339266857496	1182.506792724143	
565	3.76	2297.154944742031	941.6879103893237	919.2486416865061	1963.080476033907	424.3581436250738	980.6414862174764	1981.98124252902	402.8416776199219	941.4321206913979	2012.201852151978	427.8976387690991	980.289480966685	2229.679740760474	1011.856148620511	884.7409269032363	2041.029807681917	214.2865783223896	1025.556036448841	2022.127575482246	235.6565046559075	912.7475374888114	2131.04665628264	984.452003129902	991.5194651689864	2115.304679618781	404.8895658523771	917.0955045378608	2106.476859876601	441.2176894746327	957.6238378880483	2185.552125860653	440.5204063654267	900.9267820449738	2177.503940600201	476.0946928288366	940.6810414844138	2386.122530464253	606.6828271358129	854.7841353166478	2341.312476634173	569.9375795694498	898.9702782875744	2312.715020986994	689.3877694211775	853.4941576677434	2269.734904688032	654.5375057506341	894.2780760547529	2296.387862856312	954.0345091468942	1170.527135739688	2077.387671868299	90.89129607910135	1077.01842036557	1889.018673879428	63.88655775933407	1077.585336198594	1917.597343596274	78.37637436890557	1118.371400995625	1907.9943498198	111.0048332764397	1077.527303896778	2235.79547669754	1000.136559039066	1201.516143543724	2110.385966331248	38.18941905429248	1027.295695260107	2084.173481205263	38.27677875774776	1146.063978179444	2129.814941957824	991.9703352141679	1090.069472947053	2009.352159950673	175.2158827758519	1133.002293727418	1984.033192703958	206.0096607053589	1101.081016958299	2057.357085513193	241.2205683697862	1156.35124140181	2026.356982133974	270.9521460609666	1123.897402384986	2218.821133367126	567.1171757459925	1202.616302429403	2156.182491766988	565.6241214749765	1163.678980955376	2202.560285410668	674.59550163482	1219.359027899067	2143.69840771021	674.2293386200552	1183.461807940826	
566	3.766666666666667	2298.113779294458	946.979708049982	919.4661991103526	1975.585142637126	403.1424749519203	981.7109354411295	1996.07085874767	383.3034527401105	942.2929438305986	2024.314648012944	410.4173323468315	981.201111673631	2231.673584418634	1017.852668802732	884.177275560762	2068.784119760359	199.1010023417451	1025.396827407274	2048.251465031111	219.503269448394	912.7140561657083	2131.842802923654	989.2232426580661	991.3355097724573	2129.450275141501	394.2576320574798	917.9409493279167	2118.190088247515	430.0641414101901	958.3591377831643	2197.296464223922	434.2678801790314	901.7995573067329	2186.896718407146	469.4608794545257	941.4520619780311	2393.350525779384	615.8880930657378	855.5636483413281	2348.806131385933	577.9422500263404	899.0497103087889	2318.013256793501	696.7680085241619	853.4287315277155	2275.297657092496	660.8144450437334	893.5614292369551	2297.520336008524	956.962399813689	1170.65021089881	2056.469787802525	92.09625052867582	1078.129342436192	1867.45948368311	71.47489014021326	1077.830840615076	1896.249204221832	84.48650147782985	1118.920817641883	1887.682477954286	117.9356449584287	1078.555107925689	2237.869892176153	1004.654666138208	1201.13176754085	2086.869667914299	38.32995529376346	1027.316976269736	2060.299204753274	38.46342502229226	1146.24462397825	2131.027537488286	995.9329576310845	1090.507060343085	1988.856887715209	180.8394101116478	1133.890209490949	1964.15525672506	211.6441408013504	1101.630643631028	2037.342208303023	246.5215315046073	1157.26281729573	2006.897075737111	276.3334777868116	1124.396347742356	2206.762416004817	571.1671024986756	1203.217489836805	2143.943870580425	571.9320289091554	1164.583179885966	2194.797157866713	679.1888434300856	1219.751526988922	2135.762975655094	681.038843474091	1184.16130070675	
567	3.773333333333333	2299.359037820511	952.6853440654949	919.6232771610382	1989.282479571012	381.1133779724807	983.0168515224707	2011.149057861291	363.0989628001979	943.3928013655548	2037.324385122871	392.1437248637882	982.3561706452662	2234.18945890612	1024.236024171025	883.513604888694	2097.510357559959	184.2554720121947	1025.209034952109	2075.196731144435	203.6376171775429	912.7318052470529	2132.912502404108	994.4192262457645	991.0463393211546	2143.923448820683	383.221686000009	918.9315624443021	2130.226074776336	418.2728627929747	959.3183941057813	2208.998371364502	427.6030223090264	902.862757132538	2196.25714044914	462.1669654379972	942.4907825264122	2399.812769321153	625.0367359469806	856.5721730671269	2355.448688173528	586.0867768885925	899.3763556446281	2322.907549535683	704.3039412403582	853.4501792709941	2280.372800401061	667.457255313692	892.97001136151	2298.941244417649	960.2205744563851	1170.616952050335	2036.216718098739	93.40227708078766	1079.49140884533	1846.68247013527	80.12562017840486	1078.235350801871	1875.676783733702	91.43649852899372	1119.63948147568	1868.362539245385	125.7674619725598	1079.798894779223	2240.73305262167	1009.527161652744	1200.622411808608	2063.614840911083	38.62456920101325	1027.440043436921	2036.693201094384	38.76454006969446	1146.571412106156	2132.543337238121	1000.301050896324	1090.903349778873	1969.063326881411	187.2688477431213	1134.976038156676	1944.976969388561	217.9848958683984	1102.2753841309	2017.872682714469	252.7572511652965	1158.332568829481	1987.992388831159	282.5185797272136	1124.944742202703	2194.757349667362	576.1961348861831	1203.757094923691	2132.128358371124	579.2968838563023	1165.033513638358	2187.134463010583	684.5738704060158	1220.056872129467	2128.20655730642	688.6814363240924	1184.499814666981	
568	3.78	2300.828119306371	958.7016998071128	919.6863363435709	2004.318229902886	358.4418184648904	984.4977638176484	2027.355535932709	342.3691856170295	944.6790577884433	2051.369992801206	373.2008380041053	983.7053699916314	2236.950789020791	1030.884639272694	882.8032512683324	2127.194210432513	169.9280955364767	1025.001343520148	2102.991074339353	188.2039990592934	912.8006367940123	2134.23010337717	999.9605247358297	990.6898273350999	2158.813343862733	371.8458183577084	920.0392845965293	2142.724616550628	405.9033110472548	960.4818293529657	2220.748903931683	420.5340782155721	904.0891322351727	2205.725736237031	454.2090587581172	943.7768141246703	2405.491249146266	633.9478963162309	857.8097228503154	2361.202971524829	594.1858432967496	899.9437340544141	2327.364164113724	711.8501695315625	853.5961974275789	2284.910849036459	674.3116918325427	892.537848139594	2300.603076945315	963.7115654689716	1170.414180169522	2016.673201514614	94.78588995952678	1081.077401090846	1826.809497586091	89.78713848260811	1078.882097739883	1856.018845111101	99.19899295409921	1120.575778997044	1850.15594008829	134.431167326757	1081.282562290626	2244.342335894585	1014.650326242073	1199.998234084271	2040.677556735046	39.0927690896156	1027.68548118958	2013.480905372939	39.19836426393187	1147.05455042054	2134.330854658487	1005.023174365472	1091.263650075368	1950.095787365798	194.3957808242143	1136.25677372401	1926.62293774705	224.9223927527354	1103.008928823361	1999.079072298989	259.8214262342788	1159.535241323421	1969.772261943789	289.3994241529111	1125.523423541147	2182.840263730559	582.115594512089	1204.192889302414	2120.777279101151	587.5852085040359	1164.980437821759	2179.567932425603	690.6694486339031	1220.223311051294	2121.048772680318	697.0372310670351	1184.390082549242	
